<svg width="210" height="81" viewBox="0 0 210 81" fill="none" xmlns="http://www.w3.org/2000/svg">
<path d="M55.0912 37.839C64.4081 40.0248 71.8827 46.9253 71.8827 57.9667C71.8827 72.1127 60.0366 80.5092 41.6342 80.5092H0V0.000760579H40.8301C55.0912 0.000760579 67.3974 5.29027 67.3974 21.1627C67.3974 29.6735 61.0722 35.3089 55.0912 37.6098V37.839ZM33.929 31.398C39.5645 31.398 42.6699 29.0982 42.6699 25.073C42.6699 20.7026 40.2549 18.5168 34.504 18.5168H24.7282V31.398H33.929ZM38.07 61.9917C43.9355 61.9917 47.1554 60.0371 47.1554 55.5518C47.1554 51.5255 44.1653 49.3402 37.4947 49.3402H24.7282V61.9917H38.07Z" fill="#C91C2E"/>
<path d="M136.55 39.6796V-2.29207e-07H160.703V80.5092H138.85L105.266 37.955H105.037V80.5092H80.6538V-2.29207e-07H105.037L136.205 39.6796H136.55Z" fill="#C91C2E"/>
<path d="M171.115 3.07216e-05H195.844L171.115 24.6262V3.07216e-05Z" fill="#C91C2E"/>
<path d="M171.115 34.0509L195.844 9.4247V80.5092H171.115V34.0509Z" fill="#C91C2E"/>
<path d="M202.113 77.4146C202.3 77.8795 202.559 78.2844 202.889 78.6264C203.22 78.9687 203.609 79.2381 204.059 79.432C204.509 79.6277 204.997 79.7247 205.521 79.7247C206.04 79.7247 206.52 79.6277 206.966 79.432C207.413 79.2381 207.801 78.9687 208.131 78.6264C208.462 78.2844 208.721 77.8795 208.908 77.4146C209.095 76.9483 209.188 76.4415 209.188 75.8909C209.188 75.3582 209.095 74.8604 208.908 74.3982C208.721 73.9372 208.462 73.5368 208.131 73.198C207.801 72.8601 207.413 72.5936 206.966 72.3982C206.52 72.2028 206.04 72.1058 205.521 72.1058C204.997 72.1058 204.509 72.2028 204.059 72.3982C203.609 72.5936 203.22 72.8601 202.889 73.198C202.559 73.5368 202.3 73.9372 202.113 74.3982C201.926 74.8604 201.831 75.3582 201.831 75.8909C201.831 76.4415 201.926 76.9483 202.113 77.4146ZM201.379 74.1362C201.617 73.5946 201.942 73.1245 202.352 72.7273C202.762 72.3291 203.239 72.0162 203.785 71.7891C204.33 71.5623 204.909 71.4492 205.521 71.4492C206.135 71.4492 206.712 71.5623 207.254 71.7891C207.795 72.0162 208.269 72.3291 208.675 72.7273C209.081 73.1245 209.404 73.5946 209.643 74.1362C209.881 74.6774 210 75.2618 210 75.8909C210 76.5361 209.881 77.132 209.643 77.6764C209.404 78.2227 209.081 78.6963 208.675 79.098C208.269 79.4996 207.795 79.8125 207.254 80.0352C206.712 80.2588 206.135 80.3693 205.521 80.3693C204.909 80.3693 204.33 80.2588 203.785 80.0352C203.239 79.8125 202.762 79.4996 202.352 79.098C201.942 78.6963 201.617 78.2227 201.379 77.6764C201.139 77.132 201.02 76.5361 201.02 75.8909C201.02 75.2618 201.139 74.6774 201.379 74.1362Z" fill="#C91C2E"/>
<path d="M205.42 75.6983H204.573V74.0385H205.648C205.783 74.0385 205.92 74.0488 206.06 74.0688C206.199 74.0885 206.322 74.1267 206.43 74.1825C206.537 74.2383 206.624 74.3177 206.692 74.4205C206.761 74.5242 206.795 74.6638 206.795 74.8386C206.795 75.0464 206.756 75.2074 206.68 75.3223C206.605 75.4389 206.503 75.5238 206.376 75.5796C206.248 75.6352 206.103 75.669 205.94 75.681C205.777 75.6931 205.604 75.6983 205.42 75.6983ZM206.155 76.2046C206.532 76.1664 206.849 76.0415 207.104 75.8285C207.358 75.6164 207.485 75.2832 207.485 74.8275C207.485 74.3421 207.341 73.9798 207.052 73.7403C206.762 73.5017 206.317 73.3818 205.715 73.3818H203.76V78.4371H204.547V76.2625H205.381L206.756 78.4371H207.601L206.155 76.2046Z" fill="#C91C2E"/>
</svg>
