<svg width="512" height="500" viewBox="0 0 512 500" fill="none" xmlns="http://www.w3.org/2000/svg">
<g clip-path="url(#clip0_7_388)">
<path d="M261.953 285.714C340.866 285.714 404.837 221.755 404.837 142.857C404.837 63.9593 340.866 0 261.953 0C183.041 0 119.07 63.9593 119.07 142.857C119.07 221.755 183.041 285.714 261.953 285.714Z" fill="#036C70"/>
<path d="M381.023 404.762C453.36 404.762 512 346.133 512 273.81C512 201.487 453.36 142.857 381.023 142.857C308.687 142.857 250.047 201.487 250.047 273.81C250.047 346.133 308.687 404.762 381.023 404.762Z" fill="#1A9BA1"/>
<path d="M279.814 500C335.71 500 381.023 454.695 381.023 398.81C381.023 342.924 335.71 297.619 279.814 297.619C223.918 297.619 178.605 342.924 178.605 398.81C178.605 454.695 223.918 500 279.814 500Z" fill="#37C6D0"/>
<path opacity="0.1" d="M285.767 128.929V382.976C285.708 391.804 280.358 399.734 272.194 403.095C269.594 404.194 266.8 404.761 263.978 404.762H178.724C178.605 402.738 178.605 400.833 178.605 398.809C178.565 396.822 178.644 394.834 178.843 392.857C181.022 354.803 204.47 321.227 239.449 306.071V283.928C161.6 271.594 108.492 198.498 120.828 120.663C120.914 120.124 121.002 119.586 121.094 119.047C121.687 115.033 122.522 111.057 123.595 107.143H263.978C275.993 107.189 285.722 116.916 285.767 128.929Z" fill="black"/>
<path opacity="0.2" d="M252.071 119.047H121.094C107.863 196.742 160.132 270.449 237.841 283.678C240.193 284.079 242.556 284.42 244.926 284.702C208.015 302.202 181.117 351.905 178.831 392.857C178.633 394.834 178.553 396.822 178.593 398.809C178.593 400.833 178.593 402.738 178.712 404.762C178.926 408.763 179.444 412.743 180.259 416.666H252.059C260.888 416.607 268.82 411.258 272.181 403.095C273.281 400.496 273.848 397.703 273.848 394.881V140.833C273.803 128.825 264.081 119.1 252.071 119.047Z" fill="black"/>
<path opacity="0.2" d="M252.071 119.047H121.094C107.866 196.749 160.143 270.46 237.859 283.686C239.448 283.957 241.043 284.2 242.64 284.417C206.92 303.179 181.081 352.762 178.843 392.857H252.071C264.067 392.766 273.77 383.065 273.861 371.071V140.833C273.815 128.82 264.086 119.093 252.071 119.047Z" fill="black"/>
<path opacity="0.2" d="M240.164 119.047H121.094C108.603 192.398 154.574 263.036 226.709 281.333C199.395 312.534 182.642 351.568 178.843 392.857H240.164C252.179 392.811 261.908 383.084 261.954 371.071V140.833C261.947 128.804 252.195 119.054 240.164 119.047Z" fill="black"/>
<path d="M21.8255 119.047H240.128C252.182 119.047 261.953 128.817 261.953 140.869V359.131C261.953 371.182 252.182 380.952 240.128 380.952H21.8255C9.7716 380.952 0 371.182 0 359.131V140.869C0 128.817 9.7716 119.047 21.8255 119.047Z" fill="url(#paint0_linear_7_388)"/>
<path d="M97.4824 247.333C92.3677 243.941 88.0953 239.426 84.9919 234.131C81.9849 228.596 80.4862 222.368 80.6458 216.071C80.378 207.546 83.2555 199.22 88.7306 192.678C94.4839 186.129 101.921 181.279 110.235 178.654C119.71 175.536 129.634 174 139.609 174.107C152.726 173.628 165.825 175.461 178.307 179.524V206.905C172.883 203.62 166.977 201.209 160.803 199.762C154.105 198.119 147.232 197.296 140.335 197.309C133.063 197.042 125.836 198.572 119.296 201.762C114.246 203.939 110.971 208.906 110.961 214.405C110.94 217.74 112.222 220.952 114.533 223.357C117.263 226.193 120.492 228.501 124.059 230.167C128.027 232.143 133.981 234.77 141.919 238.048C142.793 238.324 143.645 238.666 144.467 239.072C152.28 242.124 159.817 245.84 166.995 250.179C172.431 253.53 176.994 258.124 180.307 263.584C183.704 269.772 185.351 276.768 185.07 283.822C185.458 292.575 182.779 301.188 177.497 308.179C172.232 314.605 165.193 319.342 157.255 321.798C147.919 324.724 138.175 326.138 128.393 325.988C119.616 326.028 110.851 325.311 102.197 323.845C94.8902 322.65 87.7594 320.555 80.9673 317.607V288.738C87.4598 293.374 94.7132 296.839 102.4 298.976C110.061 301.363 118.024 302.638 126.047 302.762C133.473 303.232 140.885 301.66 147.48 298.215C152.099 295.608 154.909 290.671 154.791 285.369C154.821 281.68 153.362 278.134 150.742 275.536C147.485 272.339 143.713 269.711 139.586 267.762C134.823 265.381 127.81 262.242 118.546 258.345C111.176 255.383 104.12 251.694 97.4824 247.333Z" fill="white"/>
</g>
<defs>
<linearGradient id="paint0_linear_7_388" x1="45.5066" y1="101.997" x2="216.399" y2="398.031" gradientUnits="userSpaceOnUse">
<stop stop-color="#058F92"/>
<stop offset="0.5" stop-color="#038489"/>
<stop offset="1" stop-color="#026D71"/>
</linearGradient>
<clipPath id="clip0_7_388">
<rect width="512" height="500" fill="white"/>
</clipPath>
</defs>
</svg>
